<svg width="236" height="68" viewBox="0 0 236 68" fill="none" xmlns="http://www.w3.org/2000/svg">
<path d="M226.195 37.8563C224.105 37.8563 222.185 37.3052 220.437 36.2029C218.689 35.1007 217.282 33.6374 216.218 31.813C215.192 29.9505 214.679 27.8791 214.679 25.5986C214.679 22.938 215.173 20.6385 216.161 18.7001C217.149 16.7617 218.499 15.2793 220.209 14.2531C221.919 13.1889 223.839 12.6568 225.967 12.6568C227.716 12.6568 229.255 12.9988 230.585 13.683C231.915 14.3291 232.942 15.1653 233.664 16.1915C234.348 17.2558 234.842 18.339 235.146 19.4413C235.488 20.5055 235.659 21.5697 235.659 22.634C235.659 23.3941 235.545 23.8692 235.317 24.0593C235.089 24.2113 234.652 24.2873 234.006 24.2873H219.639C219.335 24.2873 219.183 24.3823 219.183 24.5724C219.183 26.1687 219.506 27.7081 220.152 29.1904C220.798 30.6347 221.748 31.832 223.003 32.7822C224.257 33.7324 225.796 34.2075 227.621 34.2075C229.217 34.2075 230.547 33.9794 231.611 33.5233C232.714 33.0292 233.512 32.5921 234.006 32.212L234.405 31.927C234.633 31.927 234.747 32.174 234.747 32.6681C234.747 32.9342 234.633 33.2763 234.405 33.6944C233.645 34.7586 232.524 35.7278 231.041 36.602C229.559 37.4382 227.944 37.8563 226.195 37.8563ZM219.639 21.8928H230.756C230.946 21.8928 231.041 21.7027 231.041 21.3227C231.041 20.4865 230.813 19.5743 230.357 18.5861C229.939 17.5598 229.293 16.6666 228.419 15.9065C227.545 15.1463 226.442 14.7662 225.112 14.7662C223.896 14.7662 222.85 15.1843 221.976 16.0205C221.102 16.8187 220.437 17.7499 219.981 18.8141C219.525 19.8403 219.297 20.7335 219.297 21.4937C219.297 21.7598 219.411 21.8928 219.639 21.8928Z" fill="white"/>
<path d="M188.237 37.6852C188.085 37.5332 188.009 37.2101 188.009 36.716C188.009 36.2599 188.085 36.0319 188.237 36.0319C188.541 36.0319 188.959 35.9749 189.491 35.8608C190.023 35.7468 190.517 35.5948 190.973 35.4047C191.43 35.2147 191.677 35.0437 191.715 34.8916C191.867 34.3595 191.962 33.7514 192 33.0672C192.076 32.3831 192.114 31.6609 192.114 30.9008V10.301C192.114 9.00874 192 7.79247 191.772 6.65222C191.62 6.04409 190.65 5.74002 188.864 5.74002H188.351C188.123 5.74002 188.009 5.53097 188.009 5.11288C188.009 4.50475 188.123 4.20068 188.351 4.20068C190.289 4.01064 191.924 3.70658 193.254 3.28848C194.584 2.83238 195.496 2.47131 195.991 2.20525L196.276 2.03421H196.39C196.542 2.03421 196.694 2.14824 196.846 2.37628C196.998 2.56633 197.093 2.75637 197.131 2.94641C196.713 4.20068 196.504 5.85405 196.504 7.90649V23.7742C197.264 23.6222 197.739 23.4511 197.929 23.2611L200.552 21.0376L202.604 19.3272C203.25 18.7951 203.801 18.301 204.257 17.8449C204.751 17.3888 204.999 16.9707 204.999 16.5906C204.999 16.0965 204.58 15.8305 203.744 15.7925C202.984 15.7545 202.547 15.6784 202.433 15.5644C202.129 14.8042 202.148 14.3671 202.49 14.2531H206.994C208.324 14.2531 209.407 14.2151 210.244 14.1391C211.08 14.0631 212.087 14.0061 213.265 13.9681C213.493 14.0061 213.588 14.2911 213.55 14.8232C213.512 15.3174 213.398 15.5644 213.208 15.5644C212.904 15.5644 212.467 15.6214 211.897 15.7354C211.365 15.8495 210.852 15.9825 210.358 16.1345C209.864 16.2486 209.502 16.3816 209.274 16.5336C208.856 16.7617 208.134 17.2558 207.108 18.0159C206.12 18.7761 205.056 19.6503 203.915 20.6385C202.775 21.5887 201.749 22.5199 200.837 23.4321C203.763 26.5488 206.044 29.0574 207.678 30.9578C209.35 32.8582 210.434 34.0364 210.928 34.4925C211.574 35.0247 212.391 35.4428 213.379 35.7468C214.368 36.0129 215.071 36.1459 215.489 36.1459C215.641 36.1459 215.717 36.45 215.717 37.0581C215.717 37.4382 215.698 37.6472 215.66 37.6852L209.445 37.4002L203.516 37.6852C203.364 37.5332 203.288 37.2291 203.288 36.773C203.288 36.355 203.364 36.1459 203.516 36.1459C203.896 36.1459 204.333 36.0699 204.827 35.9179C205.322 35.7658 205.569 35.5948 205.569 35.4047C205.569 35.3287 205.55 35.2717 205.512 35.2337L197.188 26.2257L196.504 26.3968V29.8175C196.504 31.0718 196.542 32.136 196.618 33.0102C196.732 33.8464 196.846 34.4735 196.96 34.8916C197.036 35.0437 197.302 35.2147 197.758 35.4047C198.214 35.5948 198.708 35.7468 199.24 35.8608C199.772 35.9749 200.152 36.0319 200.38 36.0319C200.495 36.0319 200.571 36.2599 200.609 36.716C200.647 37.1721 200.628 37.4952 200.552 37.6852L194.451 37.4002L188.237 37.6852Z" fill="white"/>
<path d="M175.648 37.9133C173.368 37.9133 171.277 37.3432 169.377 36.2029C167.477 35.0627 165.956 33.5233 164.816 31.5849C163.714 29.6465 163.163 27.518 163.163 25.1995C163.163 22.843 163.695 20.7145 164.759 18.8141C165.861 16.9137 167.344 15.4124 169.206 14.3101C171.068 13.1699 173.178 12.5998 175.534 12.5998C177.815 12.5998 179.886 13.1699 181.749 14.3101C183.649 15.4504 185.15 16.9707 186.253 18.8711C187.393 20.7715 187.963 22.881 187.963 25.1995C187.963 27.518 187.412 29.6465 186.31 31.5849C185.207 33.5233 183.725 35.0627 181.863 36.2029C180.038 37.3432 177.967 37.9133 175.648 37.9133ZM176.161 35.6898C177.53 35.6898 178.727 35.2527 179.753 34.3785C180.779 33.5043 181.578 32.3261 182.148 30.8438C182.756 29.3614 183.06 27.7461 183.06 25.9977C183.06 23.9452 182.68 22.0828 181.92 20.4105C181.16 18.7001 180.152 17.3508 178.898 16.3626C177.682 15.3364 176.351 14.8232 174.907 14.8232C173.577 14.8232 172.38 15.2603 171.315 16.1345C170.289 16.9707 169.491 18.111 168.921 19.5553C168.351 20.9616 168.066 22.5579 168.066 24.3443C168.066 26.3968 168.427 28.2972 169.149 30.0456C169.909 31.756 170.897 33.1242 172.114 34.1505C173.368 35.1767 174.717 35.6898 176.161 35.6898Z" fill="white"/>
<path d="M140.123 46.8962C139.971 46.7441 139.895 46.4401 139.895 45.984C139.895 45.4899 139.971 45.2428 140.123 45.2428C140.427 45.2428 140.845 45.1858 141.377 45.0718C141.909 44.9578 142.403 44.8057 142.859 44.6157C143.315 44.4256 143.562 44.2546 143.6 44.1026C143.752 43.5704 143.847 42.9623 143.885 42.2782C143.961 41.594 143.999 40.8719 143.999 40.1117V20.0684C143.999 18.6241 143.733 17.5978 143.201 16.9897C142.821 16.5336 142.365 16.2295 141.833 16.0775C141.339 15.9255 140.883 15.8495 140.465 15.8495C140.085 15.8115 139.895 15.7544 139.895 15.6784C139.895 14.7662 140.009 14.2911 140.237 14.2531C144.265 13.645 146.85 13.1699 147.99 12.8278L148.389 12.7138C148.579 12.7138 148.655 12.9228 148.617 13.3409C148.579 13.721 148.541 14.0441 148.503 14.3101L148.446 14.6522C148.826 14.3861 149.359 14.1011 150.043 13.797C150.727 13.493 151.449 13.2269 152.209 12.9988C153.007 12.7708 153.692 12.6568 154.262 12.6568C156.846 12.6568 158.994 13.2459 160.704 14.4242C162.452 15.5644 163.745 17.0277 164.581 18.8141C165.455 20.5625 165.892 22.3489 165.892 24.1733C165.892 25.9977 165.55 27.7461 164.866 29.4184C164.182 31.0528 163.251 32.5161 162.072 33.8084C160.894 35.1007 159.545 36.1269 158.024 36.8871C156.542 37.6092 155.003 37.9703 153.406 37.9703C152.228 37.9703 151.335 37.8753 150.727 37.6852C150.119 37.5332 149.416 37.2671 148.617 36.8871C148.465 37.0391 148.389 37.2862 148.389 37.6282V39.0285C148.389 40.1307 148.427 41.0999 148.503 41.9361C148.579 42.7723 148.693 43.4944 148.845 44.1026C148.922 44.2546 149.188 44.4256 149.644 44.6157C150.1 44.8057 150.594 44.9578 151.126 45.0718C151.658 45.1858 152.038 45.2428 152.266 45.2428C152.38 45.2428 152.456 45.4709 152.494 45.927C152.532 46.4211 152.513 46.7441 152.437 46.8962L146.337 46.6111L140.123 46.8962ZM153.635 35.5758C155.155 35.5758 156.447 35.1197 157.511 34.2075C158.614 33.2573 159.469 32.041 160.077 30.5587C160.685 29.0384 160.989 27.442 160.989 25.7696C160.989 23.6412 160.59 21.8168 159.792 20.2964C159.032 18.7381 158.005 17.5408 156.713 16.7047C155.421 15.8685 153.996 15.4504 152.437 15.4504C151.259 15.4504 150.29 15.7735 149.53 16.4196C148.769 17.0277 148.389 17.9209 148.389 19.0992V31.927C148.389 32.9532 148.941 33.8274 150.043 34.5496C151.145 35.2337 152.342 35.5758 153.635 35.5758Z" fill="white"/>
<path d="M130.187 38.1413C129.008 38.1413 127.944 38.0083 126.994 37.7423C126.044 37.4762 124.884 37.2482 123.516 37.0581C123.364 36.64 123.212 36.0699 123.06 35.3477C122.908 34.6256 122.775 33.8654 122.661 33.0672C122.585 32.2691 122.547 31.6229 122.547 31.1288C122.851 30.9008 123.079 30.7867 123.231 30.7867C123.801 30.7867 124.105 30.9008 124.143 31.1288C124.295 31.889 124.675 32.6491 125.283 33.4093C125.892 34.1695 126.633 34.8156 127.507 35.3477C128.381 35.8418 129.274 36.0889 130.187 36.0889C131.403 36.0889 132.391 35.7658 133.151 35.1197C133.949 34.4355 134.348 33.4663 134.348 32.2121C134.348 30.8818 133.835 29.7795 132.809 28.9053C132.011 28.2592 131.327 27.8031 130.757 27.537C130.225 27.233 129.692 26.9669 129.16 26.7389C128.666 26.4728 128.039 26.1117 127.279 25.6556C124.314 23.9452 122.832 21.9118 122.832 19.5553C122.832 18.187 123.212 16.9897 123.972 15.9635C124.732 14.8993 125.74 14.0821 126.994 13.512C128.286 12.9038 129.654 12.5998 131.099 12.5998C131.517 12.5998 131.992 12.6378 132.524 12.7138C133.056 12.7518 133.645 12.8088 134.291 12.8848C134.938 12.9988 135.47 13.0939 135.888 13.1699C136.306 13.2459 136.648 13.3029 136.914 13.3409C137.332 15.0893 137.56 17.0277 137.598 19.1562C137.598 19.3462 137.351 19.4413 136.857 19.4413C136.325 19.4413 136.04 19.3082 136.002 19.0422C135.812 17.9779 135.261 16.9707 134.348 16.0205C133.474 15.0703 132.467 14.5952 131.327 14.5952C128.59 14.5952 127.222 15.7164 127.222 17.9589C127.222 18.5291 127.279 19.0422 127.393 19.4983C127.545 19.9164 127.868 20.3154 128.362 20.6955C129.54 21.6077 130.928 22.5199 132.524 23.4321C134.158 24.3443 135.508 25.1995 136.572 25.9977C138.168 27.214 138.966 28.6393 138.966 30.2736C138.966 31.756 138.567 33.1052 137.769 34.3215C136.971 35.4998 135.907 36.431 134.577 37.1151C133.246 37.7993 131.783 38.1413 130.187 38.1413Z" fill="white"/>
<path d="M110.488 37.8563C108.397 37.8563 106.478 37.3052 104.729 36.2029C102.981 35.1007 101.575 33.6374 100.511 31.813C99.4843 29.9505 98.9712 27.8791 98.9712 25.5986C98.9712 22.938 99.4653 20.6385 100.454 18.7001C101.442 16.7617 102.791 15.2793 104.501 14.2531C106.212 13.1889 108.131 12.6568 110.26 12.6568C112.008 12.6568 113.547 12.9988 114.878 13.683C116.208 14.3291 117.234 15.1653 117.956 16.1915C118.64 17.2558 119.135 18.339 119.439 19.4413C119.781 20.5055 119.952 21.5697 119.952 22.634C119.952 23.3941 119.838 23.8692 119.61 24.0593C119.382 24.2113 118.945 24.2873 118.298 24.2873H103.931C103.627 24.2873 103.475 24.3823 103.475 24.5724C103.475 26.1687 103.798 27.7081 104.444 29.1904C105.091 30.6347 106.041 31.832 107.295 32.7822C108.549 33.7324 110.089 34.2075 111.913 34.2075C113.509 34.2075 114.84 33.9794 115.904 33.5233C117.006 33.0292 117.804 32.5921 118.298 32.212L118.698 31.927C118.926 31.927 119.04 32.174 119.04 32.6681C119.04 32.9342 118.926 33.2763 118.698 33.6944C117.937 34.7586 116.816 35.7278 115.334 36.602C113.851 37.4382 112.236 37.8563 110.488 37.8563ZM103.931 21.8928H115.049C115.239 21.8928 115.334 21.7027 115.334 21.3227C115.334 20.4865 115.106 19.5743 114.65 18.5861C114.232 17.5598 113.585 16.6666 112.711 15.9065C111.837 15.1463 110.735 14.7662 109.404 14.7662C108.188 14.7662 107.143 15.1843 106.269 16.0205C105.395 16.8187 104.729 17.7499 104.273 18.8141C103.817 19.8403 103.589 20.7335 103.589 21.4937C103.589 21.7598 103.703 21.8928 103.931 21.8928Z" fill="white"/>
<path d="M67.1421 37.6852C67.0281 37.5712 66.9711 37.2672 66.9711 36.773C66.9711 36.2789 67.0281 36.0319 67.1421 36.0319C67.4842 36.0319 67.9403 35.9749 68.5104 35.8608C69.0805 35.7088 69.6127 35.5378 70.1068 35.3477C70.6389 35.1577 70.9619 34.9486 71.076 34.7206C71.342 34.3025 71.4751 32.5161 71.4751 29.3614V7.81071C71.4751 6.70847 71.4371 5.73926 71.361 4.90307C71.323 4.06689 71.228 3.40174 71.076 2.90764C71 2.67959 70.6959 2.47054 70.1638 2.2805C69.6697 2.09046 69.1185 1.93842 68.5104 1.8244C67.9403 1.71037 67.4842 1.65336 67.1421 1.65336C66.9901 1.65336 66.9141 1.42531 66.9141 0.969212C66.9141 0.475104 66.9901 0.152033 67.1421 0C68.1303 0.0380083 69.1756 0.0760166 70.2778 0.114025C71.418 0.114025 72.6343 0.114025 73.9266 0.114025L78.7156 0.0570125H81.9654C82.4595 0.0570125 82.9536 0.0760166 83.4477 0.114025C83.9798 0.152033 84.4929 0.209046 84.987 0.285062C86.5073 0.551121 87.9327 1.06423 89.263 1.8244C90.6313 2.54656 91.7335 3.53477 92.5697 4.78905C93.4439 6.04332 93.881 7.58266 93.881 9.40706C93.881 10.7373 93.4439 12.0106 92.5697 13.2269C91.6955 14.4052 90.8783 15.2223 90.1181 15.6784C89.396 16.1345 88.7688 16.4576 88.2367 16.6476C87.9327 16.7617 87.8376 16.8757 87.9517 16.9897C88.7118 17.1037 89.567 17.4458 90.5172 18.0159C91.4674 18.5861 92.3796 19.3272 93.2538 20.2394C94.128 21.1136 94.8502 22.1208 95.4203 23.2611C96.0284 24.4013 96.3325 25.5986 96.3325 26.8529C96.3325 29.0193 95.7244 30.9008 94.5081 32.4971C93.3298 34.0935 91.6575 35.3287 89.491 36.2029C87.3245 37.0771 84.778 37.5142 81.8513 37.5142H74.0406L67.1421 37.6852ZM80.198 16.2486C81.4142 16.2486 82.4785 16.1915 83.3907 16.0775C84.949 15.9255 86.2413 15.3934 87.2675 14.4812C88.3317 13.531 88.8639 12.2767 88.8639 10.7183C88.8639 8.09577 88.1987 6.06233 86.8684 4.61801C85.5761 3.13569 83.6377 2.39452 81.0532 2.39452C79.2668 2.39452 77.9175 2.52755 77.0053 2.79361C76.7772 2.83162 76.6632 3.00266 76.6632 3.30672L76.4351 9.06498V15.8495C76.4351 16.1155 77.6894 16.2486 80.198 16.2486ZM80.426 34.9486C81.3762 34.9486 82.3074 34.8726 83.2196 34.7206C84.1698 34.5686 85.2911 34.2645 86.5834 33.8084C87.8756 33.3903 88.9209 32.6491 89.7191 31.5849C90.5172 30.4827 90.9163 29.1144 90.9163 27.48C90.9163 25.8457 90.5552 24.3633 89.8331 23.033C89.1109 21.7027 88.0087 20.6385 86.5264 19.8403C85.044 19.0422 83.1246 18.6431 80.7681 18.6431C80.35 18.6431 79.7989 18.6621 79.1147 18.7001C78.4306 18.7381 77.6134 18.7951 76.6632 18.8711C76.5112 19.2892 76.4351 19.9164 76.4351 20.7525V29.0764C76.4351 31.965 76.7392 33.6564 77.3473 34.1505C77.9555 34.6826 78.9817 34.9486 80.426 34.9486Z" fill="white"/>
<path d="M228.177 61.7377H234.797V63.0512H226.775V51.4918H228.177V61.7377Z" fill="white"/>
<path d="M215.319 63.0512H213.83L212.604 59.8461H207.367L206.141 63.0512H204.67L209.171 51.4918H210.835L215.319 63.0512ZM207.875 58.5326H212.096L209.977 52.8404L207.875 58.5326Z" fill="white"/>
<path d="M193.218 51.4918V63.0512H191.816V51.4918H193.218Z" fill="white"/>
<path d="M180.02 60.0913C179.774 60.7452 179.424 61.3115 178.969 61.7902C178.513 62.2573 177.976 62.6134 177.357 62.8586C176.75 63.1038 176.085 63.2264 175.361 63.2264C174.263 63.2264 173.312 62.987 172.506 62.5083C171.712 62.0179 171.093 61.329 170.649 60.4416C170.217 59.5542 170.001 58.4975 170.001 57.2715C170.001 56.0455 170.217 54.9888 170.649 54.1015C171.093 53.2141 171.712 52.531 172.506 52.0523C173.312 51.5619 174.252 51.3167 175.326 51.3167C176.073 51.3167 176.739 51.4218 177.322 51.632C177.906 51.8304 178.402 52.134 178.811 52.5427C179.231 52.9397 179.564 53.4301 179.809 54.0139L178.426 54.6619C178.169 53.9964 177.795 53.4943 177.305 53.1557C176.826 52.8054 176.202 52.6303 175.431 52.6303C174.649 52.6303 173.96 52.8171 173.364 53.1907C172.769 53.5527 172.302 54.0781 171.963 54.767C171.636 55.4559 171.473 56.2907 171.473 57.2715C171.473 58.2407 171.63 59.0755 171.946 59.7761C172.261 60.465 172.71 60.9962 173.294 61.3699C173.878 61.7318 174.567 61.9128 175.361 61.9128C176.131 61.9128 176.803 61.7201 177.375 61.3348C177.947 60.9378 178.362 60.3482 178.618 59.5659L180.02 60.0913Z" fill="white"/>
<path d="M157.805 51.4918V63.0512H156.071L151.237 55.3099L150.011 53.1382H149.994L150.064 54.8896V63.0512H148.733V51.4918H150.467L155.283 59.1981L156.527 61.4224H156.544L156.474 59.6535V51.4918H157.805Z" fill="white"/>
<path d="M137.276 63.0512H135.787L134.561 59.8461H129.324L128.098 63.0512H126.627L131.128 51.4918H132.792L137.276 63.0512ZM129.832 58.5326H134.053L131.934 52.8404L129.832 58.5326Z" fill="white"/>
<path d="M115.166 51.4918V63.0512H113.432L108.598 55.3099L107.372 53.1382H107.355L107.425 54.8896V63.0512H106.094V51.4918H107.828L112.644 59.1981L113.888 61.4224H113.905L113.835 59.6535V51.4918H115.166Z" fill="white"/>
<path d="M93.2053 51.4918V63.0512H91.8042V51.4918H93.2053Z" fill="white"/>
<path d="M80.0984 52.8054H73.408V56.5359H78.6272V57.8495H73.408V63.0512H72.0068V51.4918H80.0984V52.8054Z" fill="white"/>
<path d="M228.177 61.7377H234.797V63.0512H226.775V51.4918H228.177V61.7377Z" fill="white"/>
<path d="M215.319 63.0512H213.83L212.604 59.8461H207.367L206.141 63.0512H204.67L209.171 51.4918H210.835L215.319 63.0512ZM207.875 58.5326H212.096L209.977 52.8404L207.875 58.5326Z" fill="white"/>
<path d="M193.218 51.4918V63.0512H191.816V51.4918H193.218Z" fill="white"/>
<path d="M180.02 60.0913C179.774 60.7452 179.424 61.3115 178.969 61.7902C178.513 62.2573 177.976 62.6134 177.357 62.8586C176.75 63.1038 176.085 63.2264 175.361 63.2264C174.263 63.2264 173.312 62.987 172.506 62.5083C171.712 62.0179 171.093 61.329 170.649 60.4416C170.217 59.5542 170.001 58.4975 170.001 57.2715C170.001 56.0455 170.217 54.9888 170.649 54.1015C171.093 53.2141 171.712 52.531 172.506 52.0523C173.312 51.5619 174.252 51.3167 175.326 51.3167C176.073 51.3167 176.739 51.4218 177.322 51.632C177.906 51.8304 178.402 52.134 178.811 52.5427C179.231 52.9397 179.564 53.4301 179.809 54.0139L178.426 54.6619C178.169 53.9964 177.795 53.4943 177.305 53.1557C176.826 52.8054 176.202 52.6303 175.431 52.6303C174.649 52.6303 173.96 52.8171 173.364 53.1907C172.769 53.5527 172.302 54.0781 171.963 54.767C171.636 55.4559 171.473 56.2907 171.473 57.2715C171.473 58.2407 171.63 59.0755 171.946 59.7761C172.261 60.465 172.71 60.9962 173.294 61.3699C173.878 61.7318 174.567 61.9128 175.361 61.9128C176.131 61.9128 176.803 61.7201 177.375 61.3348C177.947 60.9378 178.362 60.3482 178.618 59.5659L180.02 60.0913Z" fill="white"/>
<path d="M157.805 51.4918V63.0512H156.071L151.237 55.3099L150.011 53.1382H149.994L150.064 54.8896V63.0512H148.733V51.4918H150.467L155.283 59.1981L156.527 61.4224H156.544L156.474 59.6535V51.4918H157.805Z" fill="white"/>
<path d="M137.276 63.0512H135.787L134.561 59.8461H129.324L128.098 63.0512H126.627L131.128 51.4918H132.792L137.276 63.0512ZM129.832 58.5326H134.053L131.934 52.8404L129.832 58.5326Z" fill="white"/>
<path d="M115.166 51.4918V63.0512H113.432L108.598 55.3099L107.372 53.1382H107.355L107.425 54.8896V63.0512H106.094V51.4918H107.828L112.644 59.1981L113.888 61.4224H113.905L113.835 59.6535V51.4918H115.166Z" fill="white"/>
<path d="M93.2053 51.4918V63.0512H91.8042V51.4918H93.2053Z" fill="white"/>
<path d="M80.0984 52.8054H73.408V56.5359H78.6272V57.8495H73.408V63.0512H72.0068V51.4918H80.0984V52.8054Z" fill="white"/>
<path d="M228.177 61.7377H234.797V63.0512H226.775V51.4918H228.177V61.7377Z" fill="white"/>
<path d="M215.319 63.0512H213.83L212.604 59.8461H207.367L206.141 63.0512H204.67L209.171 51.4918H210.835L215.319 63.0512ZM207.875 58.5326H212.096L209.977 52.8404L207.875 58.5326Z" fill="white"/>
<path d="M193.218 51.4918V63.0512H191.816V51.4918H193.218Z" fill="white"/>
<path d="M180.02 60.0913C179.774 60.7452 179.424 61.3115 178.969 61.7902C178.513 62.2573 177.976 62.6134 177.357 62.8586C176.75 63.1038 176.085 63.2264 175.361 63.2264C174.263 63.2264 173.312 62.987 172.506 62.5083C171.712 62.0179 171.093 61.329 170.649 60.4416C170.217 59.5542 170.001 58.4975 170.001 57.2715C170.001 56.0455 170.217 54.9888 170.649 54.1015C171.093 53.2141 171.712 52.531 172.506 52.0523C173.312 51.5619 174.252 51.3167 175.326 51.3167C176.073 51.3167 176.739 51.4218 177.322 51.632C177.906 51.8304 178.402 52.134 178.811 52.5427C179.231 52.9397 179.564 53.4301 179.809 54.0139L178.426 54.6619C178.169 53.9964 177.795 53.4943 177.305 53.1557C176.826 52.8054 176.202 52.6303 175.431 52.6303C174.649 52.6303 173.96 52.8171 173.364 53.1907C172.769 53.5527 172.302 54.0781 171.963 54.767C171.636 55.4559 171.473 56.2907 171.473 57.2715C171.473 58.2407 171.63 59.0755 171.946 59.7761C172.261 60.465 172.71 60.9962 173.294 61.3699C173.878 61.7318 174.567 61.9128 175.361 61.9128C176.131 61.9128 176.803 61.7201 177.375 61.3348C177.947 60.9378 178.362 60.3482 178.618 59.5659L180.02 60.0913Z" fill="white"/>
<path d="M157.805 51.4918V63.0512H156.071L151.237 55.3099L150.011 53.1382H149.994L150.064 54.8896V63.0512H148.733V51.4918H150.467L155.283 59.1981L156.527 61.4224H156.544L156.474 59.6535V51.4918H157.805Z" fill="white"/>
<path d="M137.276 63.0512H135.787L134.561 59.8461H129.324L128.098 63.0512H126.627L131.128 51.4918H132.792L137.276 63.0512ZM129.832 58.5326H134.053L131.934 52.8404L129.832 58.5326Z" fill="white"/>
<path d="M115.166 51.4918V63.0512H113.432L108.598 55.3099L107.372 53.1382H107.355L107.425 54.8896V63.0512H106.094V51.4918H107.828L112.644 59.1981L113.888 61.4224H113.905L113.835 59.6535V51.4918H115.166Z" fill="white"/>
<path d="M93.2053 51.4918V63.0512H91.8042V51.4918H93.2053Z" fill="white"/>
<path d="M80.0984 52.8054H73.408V56.5359H78.6272V57.8495H73.408V63.0512H72.0068V51.4918H80.0984V52.8054Z" fill="white"/>
<path fill-rule="evenodd" clip-rule="evenodd" d="M48.0202 12.9598C48.3016 12.5664 48.8486 12.4756 49.2419 12.757L48.7325 13.4693C49.2419 12.757 49.2418 12.7569 49.2419 12.757L49.2455 12.7596L49.2528 12.7649L49.2783 12.7834C49.3001 12.7993 49.3313 12.8222 49.3712 12.8521C49.4512 12.9117 49.5663 12.999 49.7116 13.1127C50.0022 13.34 50.414 13.6733 50.9067 14.1027C51.891 14.9606 53.2043 16.2075 54.521 17.7657C54.8332 18.1351 54.7868 18.6877 54.4173 18.9998C54.0479 19.312 53.4954 19.2656 53.1833 18.8961C51.9374 17.4217 50.6909 16.2379 49.756 15.423C49.2891 15.0161 48.9014 14.7026 48.6325 14.4922C48.4981 14.387 48.3934 14.3077 48.3235 14.2555C48.2885 14.2294 48.2622 14.2101 48.2453 14.1977L48.2269 14.1844L48.2231 14.1816C48.2231 14.1816 48.2232 14.1817 48.2231 14.1816M48.0202 12.9598C47.7389 13.3531 47.8299 13.9002 48.2231 14.1816Z" fill="#DDBD85"/>
<path fill-rule="evenodd" clip-rule="evenodd" d="M51.8249 11.9532C52.0268 11.5137 52.5467 11.3211 52.9862 11.523L52.6207 12.3188C52.9862 11.523 52.986 11.5229 52.9862 11.523L52.9878 11.5237L52.9898 11.5247L52.9951 11.5271L53.0105 11.5344C53.023 11.5404 53.0396 11.5484 53.06 11.5585C53.1008 11.5788 53.157 11.6075 53.225 11.6443C53.3606 11.7176 53.5462 11.8248 53.753 11.9636C54.1536 12.2324 54.6924 12.6585 55.0759 13.2337C55.3442 13.6361 55.2354 14.1798 54.833 14.4481C54.4306 14.7164 53.8869 14.6076 53.6186 14.2052C53.4183 13.9047 53.0938 13.6305 52.7771 13.4179C52.6252 13.316 52.4886 13.2372 52.3916 13.1847C52.3434 13.1586 52.3057 13.1394 52.2818 13.1276C52.2698 13.1216 52.2613 13.1175 52.2567 13.1154L52.2529 13.1136C51.815 12.911 51.6233 12.392 51.8249 11.9532Z" fill="#DDBD85"/>
<path fill-rule="evenodd" clip-rule="evenodd" d="M43.6208 14.9184C43.8873 14.5148 44.4305 14.4036 44.8341 14.67C48.5572 17.1276 50.0428 18.7512 53.3345 22.5797C53.6498 22.9464 53.6081 23.4993 53.2413 23.8146C52.8746 24.1299 52.3217 24.0882 52.0064 23.7215C48.7498 19.9337 47.3894 18.4553 43.8692 16.1317C43.4656 15.8653 43.3544 15.3221 43.6208 14.9184Z" fill="#DDBD85"/>
<path fill-rule="evenodd" clip-rule="evenodd" d="M38.3597 16.6898C38.5995 16.2697 39.1343 16.1236 39.5544 16.3634C39.668 16.4282 39.7842 16.4944 39.9027 16.5619C43.6221 18.6787 49.7028 22.1394 52.6699 29.8488C52.8436 30.3001 52.6185 30.8069 52.1672 30.9806C51.7158 31.1543 51.2091 30.9292 51.0353 30.4779C48.2957 23.3594 42.6953 20.1687 38.982 18.0532C38.882 17.9962 38.7833 17.9399 38.6861 17.8844C38.266 17.6447 38.1199 17.1098 38.3597 16.6898Z" fill="#DDBD85"/>
<path fill-rule="evenodd" clip-rule="evenodd" d="M44.941 27.9959C39.9631 22.105 35.6364 20.6897 32.1456 20.2178C31.6663 20.153 31.3303 19.7119 31.3951 19.2326C31.4599 18.7534 31.901 18.4173 32.3803 18.4821C36.2783 19.0091 41.0063 20.626 46.2788 26.8655C46.5909 27.2349 46.5445 27.7874 46.1751 28.0996C45.8057 28.4118 45.2532 28.3653 44.941 27.9959Z" fill="#DDBD85"/>
<path fill-rule="evenodd" clip-rule="evenodd" d="M24.843 27.5339C24.9517 28.0052 24.6579 28.4754 24.1866 28.5841C20.6279 29.4054 17.8507 31.6054 15.6709 33.783C15.3287 34.1248 14.7742 34.1245 14.4324 33.7823C14.0906 33.4401 14.0909 32.8857 14.4331 32.5439C16.7011 30.2782 19.7619 27.8078 23.7928 26.8776C24.264 26.7688 24.7342 27.0627 24.843 27.5339Z" fill="#DDBD85"/>
<path fill-rule="evenodd" clip-rule="evenodd" d="M36.754 41.4892C37.2238 41.6043 37.5112 42.0785 37.3961 42.5482C37.2756 43.0396 36.9111 43.5642 36.5342 44.0331C36.1281 44.5384 35.593 45.1141 34.9855 45.7272C34.6451 46.0707 34.0906 46.0732 33.7471 45.7328C33.4035 45.3924 33.401 44.8379 33.7414 44.4944C34.332 43.8984 34.8184 43.3721 35.1691 42.9359C35.3443 42.7179 35.476 42.5341 35.5675 42.3846C35.6129 42.3106 35.6447 42.2508 35.6661 42.2046C35.6766 42.1818 35.6838 42.164 35.6885 42.1511C35.6909 42.1447 35.6925 42.1398 35.6935 42.1364L35.6947 42.1325L35.6949 42.1315L35.695 42.1313C35.695 42.1313 35.695 42.1312 35.695 42.1312C35.695 42.1312 35.695 42.1312 35.695 42.1312C35.695 42.1312 35.695 42.1312 35.695 42.1312C35.695 42.1312 35.695 42.1313 35.695 42.1313C35.695 42.1313 35.695 42.1312 35.695 42.1312C35.695 42.1312 35.695 42.1312 35.695 42.1312" fill="#DDBD85"/>
<path fill-rule="evenodd" clip-rule="evenodd" d="M34.3188 33.9822C32.8884 32.7605 30.9294 32.1398 29.0252 32.0628C27.0142 31.9815 24.9846 32.4683 23.2968 33.1645C21.5848 33.8707 20.3387 34.7441 19.8328 35.3398C19.5197 35.7084 18.9671 35.7535 18.5984 35.4404C18.2298 35.1273 18.1847 34.5747 18.4978 34.2061C19.2594 33.3092 20.7937 32.3024 22.6289 31.5454C24.4883 30.7784 26.7726 30.2189 29.096 30.3128C31.2966 30.4018 33.6617 31.1176 35.4563 32.6504C37.2809 34.2089 38.4507 36.56 38.2917 39.7426C38.2676 40.2256 37.8564 40.5977 37.3734 40.5735C36.8903 40.5494 36.5183 40.1382 36.5425 39.6552C36.6752 36.9997 35.7191 35.1783 34.3188 33.9822Z" fill="#DDBD85"/>
<path fill-rule="evenodd" clip-rule="evenodd" d="M40.467 37.6032C39.8844 33.7123 37.7281 31.2582 35.1325 29.7871C32.4996 28.295 29.4152 27.8207 27.1145 27.9646C26.6318 27.9948 26.216 27.628 26.1858 27.1453C26.1556 26.6626 26.5224 26.2468 27.0051 26.2166C29.588 26.055 33.0214 26.5775 35.996 28.2634C39.0016 29.9668 41.5382 32.8636 42.2038 37.3757L42.208 37.4039L42.2103 37.4324C42.7651 44.2373 39.2593 48.2356 36.8878 49.673C36.4742 49.9237 35.9357 49.7916 35.685 49.378C35.4343 48.9644 35.5664 48.4259 35.98 48.1752C37.8422 47.0465 40.9502 43.6608 40.467 37.6032Z" fill="#DDBD85"/>
<path fill-rule="evenodd" clip-rule="evenodd" d="M27.6139 35.7911C26.3478 36.0696 25.1798 36.737 24.3 37.2703C23.8864 37.5211 23.3479 37.389 23.0972 36.9755C22.8465 36.5619 22.9785 36.0234 23.3921 35.7726C24.2773 35.236 25.6623 34.4271 27.2376 34.0806C28.8429 33.7275 30.6897 33.8475 32.3994 35.2056C33.6046 36.0739 34.2686 37.2577 34.314 38.5897C34.3586 39.8979 33.8035 41.2233 32.8333 42.4166C32.5282 42.7918 31.9766 42.8487 31.6014 42.5436C31.2261 42.2385 31.1692 41.6869 31.4744 41.3117C32.2646 40.3397 32.5897 39.4149 32.5636 38.6494C32.5386 37.9147 32.1878 37.2066 31.3619 36.6168L31.3425 36.6029L31.3238 36.588C30.1198 35.6247 28.8442 35.5205 27.6139 35.7911Z" fill="#DDBD85"/>
<path fill-rule="evenodd" clip-rule="evenodd" d="M46.9662 29.4547C47.4081 29.2582 47.9257 29.4571 48.1222 29.899C52.9498 40.7562 48.3921 51.858 41.2563 56.4381C40.8493 56.6993 40.3076 56.5812 40.0463 56.1741C39.7851 55.7671 39.9033 55.2254 40.3103 54.9642C46.728 50.845 50.9935 40.6671 46.5218 30.6106C46.3253 30.1687 46.5243 29.6512 46.9662 29.4547Z" fill="#DDBD85"/>
<path fill-rule="evenodd" clip-rule="evenodd" d="M45.9404 56.1955C46.2815 56.5384 46.2801 57.0929 45.9372 57.434C44.6416 58.7229 43.8421 59.2104 42.4213 59.8262C41.9775 60.0185 41.4618 59.8147 41.2695 59.371C41.0772 58.9272 41.281 58.4116 41.7247 58.2192C42.9613 57.6832 43.5738 57.3147 44.702 56.1923C45.0448 55.8512 45.5993 55.8527 45.9404 56.1955Z" fill="#DDBD85"/>
<path fill-rule="evenodd" clip-rule="evenodd" d="M50.5094 49.069C50.9791 49.1842 51.2666 49.6583 51.1514 50.128C50.6118 52.3294 49.1509 54.1521 48.301 55.1529C47.988 55.5215 47.4353 55.5666 47.0667 55.2535C46.698 54.9404 46.653 54.3878 46.9661 54.0191C47.8062 53.0299 49.017 51.4788 49.4504 49.711C49.5655 49.2413 50.0397 48.9539 50.5094 49.069Z" fill="#DDBD85"/>
<path fill-rule="evenodd" clip-rule="evenodd" d="M47.6168 59.8935C47.9675 60.2265 47.9819 60.7808 47.6489 61.1315C47.2712 61.5293 46.7035 61.9736 46.2077 62.323C45.9539 62.502 45.7042 62.6663 45.4872 62.7978C45.2901 62.9174 45.0635 63.0449 44.8767 63.1127C44.422 63.2774 43.9198 63.0424 43.755 62.5877C43.5902 62.133 43.8252 61.6308 44.2799 61.466C44.2778 61.4668 44.2778 61.4668 44.2802 61.4657C44.2867 61.4628 44.3115 61.4517 44.3585 61.4268C44.4164 61.3962 44.4906 61.3539 44.5792 61.3002C44.7559 61.193 44.9717 61.0514 45.1988 60.8914C45.6648 60.563 46.1208 60.1972 46.3787 59.9256C46.7117 59.5748 47.266 59.5605 47.6168 59.8935Z" fill="#DDBD85"/>
<path fill-rule="evenodd" clip-rule="evenodd" d="M10.4358 27.2535C10.1658 26.8522 9.62166 26.7458 9.22038 27.0157C8.76528 27.3219 8.23265 27.8077 7.80558 28.2384C7.58689 28.4589 7.38329 28.6778 7.21746 28.8698C7.06678 29.0443 6.90325 29.2465 6.80538 29.4194C6.5672 29.8404 6.71535 30.3747 7.13628 30.6129C7.5572 30.851 8.09151 30.7029 8.3297 30.282C8.32856 30.284 8.32857 30.284 8.33001 30.2818C8.33401 30.2758 8.34905 30.2532 8.38142 30.211C8.4213 30.159 8.47536 30.0929 8.54302 30.0145C8.67815 29.858 8.85365 29.6688 9.04923 29.4716C9.45069 29.0667 9.88724 28.678 10.198 28.4689C10.5993 28.1989 10.7058 27.6548 10.4358 27.2535Z" fill="#DDBD85"/>
<path fill-rule="evenodd" clip-rule="evenodd" d="M39.7026 28.101C36.2654 25.1411 31.5935 23.4273 26.9535 23.7176C23.2362 23.9501 19.7968 25.4069 16.9887 27.1659C14.1795 28.9257 12.0545 30.9554 10.9761 32.257C10.6676 32.6295 10.1155 32.6813 9.74311 32.3727C9.37068 32.0642 9.31889 31.5121 9.62744 31.1397C10.8256 29.6934 13.0922 27.5401 16.0589 25.6817C19.0267 23.8226 22.7476 22.2259 26.8441 21.9696C31.9714 21.6488 37.086 23.5364 40.8455 26.7738C44.6091 30.0148 47.0694 34.6618 46.7535 39.8721C46.2586 48.0351 41.4039 52.3585 38.8732 53.5324C38.4344 53.7359 37.9138 53.5452 37.7103 53.1065C37.5068 52.6678 37.6974 52.1471 38.1362 51.9436C40.1269 51.0202 44.5522 47.2396 45.0053 39.7661C45.2819 35.2036 43.1356 31.0573 39.7026 28.101Z" fill="#DDBD85"/>
</svg>
