<svg width="530" height="530" viewBox="0 0 530 530" fill="none" xmlns="http://www.w3.org/2000/svg">
<path fill-rule="evenodd" clip-rule="evenodd" d="M357.155 124.746C359.104 122.021 362.892 121.393 365.616 123.341L362.088 128.274C365.616 123.341 365.615 123.341 365.616 123.341L365.641 123.359L365.692 123.396L365.868 123.524C366.019 123.634 366.235 123.793 366.512 124C367.065 124.413 367.863 125.017 368.869 125.805C370.882 127.379 373.733 129.687 377.146 132.661C383.962 138.602 393.058 147.238 402.177 158.03C404.339 160.588 404.017 164.415 401.459 166.576C398.901 168.738 395.074 168.417 392.912 165.858C384.284 155.647 375.651 147.448 369.176 141.805C365.943 138.987 363.258 136.816 361.395 135.358C360.464 134.63 359.74 134.081 359.255 133.719C359.013 133.539 358.831 133.405 358.714 133.319L358.587 133.227L358.56 133.208C358.56 133.207 358.561 133.208 358.56 133.208M357.155 124.746C355.207 127.47 355.837 131.259 358.56 133.208L357.155 124.746Z" fill="#DDBD85"/>
<path fill-rule="evenodd" clip-rule="evenodd" d="M383.507 117.775C384.905 114.731 388.506 113.397 391.55 114.795L389.018 120.306C391.55 114.795 391.548 114.795 391.55 114.795L391.561 114.8L391.574 114.807L391.611 114.824L391.718 114.874C391.804 114.915 391.919 114.971 392.061 115.041C392.344 115.181 392.733 115.38 393.204 115.635C394.142 116.143 395.428 116.885 396.86 117.846C399.635 119.708 403.366 122.659 406.022 126.643C407.88 129.43 407.127 133.195 404.34 135.053C401.553 136.911 397.788 136.158 395.93 133.371C394.542 131.29 392.295 129.391 390.101 127.918C389.049 127.213 388.104 126.667 387.432 126.303C387.098 126.123 386.837 125.99 386.671 125.908C386.588 125.867 386.53 125.838 386.498 125.823L386.471 125.811C383.438 124.408 382.111 120.813 383.507 117.775Z" fill="#DDBD85"/>
<path fill-rule="evenodd" clip-rule="evenodd" d="M326.686 138.31C328.532 135.515 332.294 134.745 335.089 136.59C360.874 153.61 371.163 164.855 393.959 191.369C396.143 193.909 395.854 197.738 393.314 199.922C390.774 202.105 386.945 201.817 384.761 199.277C362.208 173.044 352.786 162.805 328.407 146.713C325.611 144.868 324.841 141.106 326.686 138.31Z" fill="#DDBD85"/>
<path fill-rule="evenodd" clip-rule="evenodd" d="M290.252 150.578C291.912 147.669 295.617 146.657 298.525 148.318C299.312 148.767 300.117 149.225 300.938 149.692C326.697 164.352 368.809 188.32 389.358 241.712C390.561 244.838 389.003 248.347 385.877 249.55C382.751 250.754 379.241 249.195 378.038 246.069C359.064 196.769 320.279 174.672 294.562 160.02C293.869 159.626 293.185 159.236 292.512 158.852C289.603 157.191 288.591 153.487 290.252 150.578Z" fill="#DDBD85"/>
<path fill-rule="evenodd" clip-rule="evenodd" d="M335.832 228.88C301.357 188.082 271.392 178.28 247.216 175.012C243.897 174.563 241.57 171.508 242.019 168.189C242.467 164.87 245.522 162.543 248.841 162.991C275.837 166.641 308.582 177.839 345.097 221.051C347.258 223.61 346.937 227.436 344.379 229.598C341.82 231.76 337.994 231.438 335.832 228.88Z" fill="#DDBD85"/>
<path fill-rule="evenodd" clip-rule="evenodd" d="M196.638 225.68C197.391 228.944 195.356 232.201 192.092 232.954C167.446 238.641 148.212 253.878 133.116 268.959C130.746 271.326 126.906 271.324 124.539 268.954C122.172 266.585 122.174 262.744 124.543 260.377C140.251 244.686 161.449 227.577 189.365 221.135C192.629 220.382 195.885 222.417 196.638 225.68Z" fill="#DDBD85"/>
<path fill-rule="evenodd" clip-rule="evenodd" d="M279.129 322.329C282.382 323.126 284.373 326.41 283.575 329.663C282.741 333.067 280.217 336.7 277.606 339.947C274.794 343.446 271.088 347.433 266.881 351.679C264.523 354.059 260.683 354.076 258.304 351.719C255.925 349.361 255.907 345.521 258.265 343.142C262.355 339.014 265.724 335.369 268.152 332.348C269.366 330.838 270.278 329.566 270.912 328.53C271.226 328.017 271.446 327.604 271.594 327.283C271.667 327.125 271.717 327.003 271.75 326.913C271.766 326.868 271.777 326.835 271.784 326.811L271.792 326.784L271.794 326.777L271.794 326.776C271.794 326.776 271.795 326.775 271.795 326.775C271.795 326.775 271.795 326.775 271.795 326.775C271.795 326.775 271.795 326.775 271.795 326.775C271.795 326.775 271.794 326.776 271.794 326.776C271.794 326.776 271.795 326.775 271.795 326.775C271.795 326.775 271.795 326.775 271.795 326.775" fill="#DDBD85"/>
<path fill-rule="evenodd" clip-rule="evenodd" d="M262.265 270.338C252.359 261.877 238.791 257.578 225.603 257.045C211.676 256.482 197.62 259.854 185.931 264.675C174.074 269.566 165.444 275.615 161.94 279.74C159.772 282.293 155.945 282.605 153.392 280.437C150.839 278.269 150.527 274.442 152.695 271.889C157.97 265.677 168.596 258.705 181.305 253.462C194.183 248.15 210.003 244.275 226.093 244.926C241.334 245.542 257.714 250.499 270.142 261.115C282.779 271.908 290.881 288.191 289.779 310.233C289.612 313.578 286.765 316.154 283.419 315.987C280.074 315.82 277.498 312.972 277.665 309.627C278.584 291.236 271.963 278.622 262.265 270.338Z" fill="#DDBD85"/>
<path fill-rule="evenodd" clip-rule="evenodd" d="M304.845 295.416C300.81 268.469 285.877 251.473 267.901 241.285C249.667 230.951 228.305 227.666 212.371 228.663C209.028 228.872 206.149 226.332 205.94 222.989C205.73 219.646 208.271 216.766 211.614 216.557C229.502 215.438 253.28 219.057 273.881 230.732C294.696 242.53 312.264 262.592 316.874 293.841L316.903 294.036L316.919 294.233C320.761 341.361 296.481 369.051 280.057 379.007C277.193 380.743 273.463 379.828 271.727 376.964C269.991 374.1 270.905 370.37 273.77 368.634C286.667 360.816 308.192 337.368 304.845 295.416Z" fill="#DDBD85"/>
<path fill-rule="evenodd" clip-rule="evenodd" d="M215.83 282.866C207.061 284.795 198.972 289.417 192.879 293.111C190.015 294.847 186.285 293.933 184.549 291.069C182.813 288.204 183.727 284.475 186.591 282.738C192.722 279.021 202.314 273.419 213.224 271.02C224.342 268.574 237.132 269.406 248.972 278.811C257.319 284.825 261.918 293.023 262.232 302.248C262.541 311.308 258.696 320.488 251.977 328.751C249.864 331.35 246.044 331.744 243.445 329.631C240.847 327.518 240.453 323.698 242.566 321.099C248.039 314.368 250.29 307.963 250.11 302.661C249.936 297.574 247.507 292.67 241.787 288.584L241.653 288.488L241.523 288.385C233.185 281.714 224.35 280.992 215.83 282.866Z" fill="#DDBD85"/>
<path fill-rule="evenodd" clip-rule="evenodd" d="M349.857 238.982C352.917 237.621 356.502 238.999 357.863 242.06C391.297 317.252 359.732 394.139 310.312 425.859C307.494 427.668 303.742 426.85 301.933 424.031C300.123 421.212 300.942 417.46 303.761 415.651C348.207 387.123 377.748 316.636 346.779 246.988C345.418 243.928 346.796 240.343 349.857 238.982Z" fill="#DDBD85"/>
<path fill-rule="evenodd" clip-rule="evenodd" d="M342.753 424.179C345.116 426.553 345.106 430.393 342.731 432.756C333.758 441.683 328.221 445.058 318.381 449.323C315.308 450.655 311.736 449.244 310.404 446.171C309.072 443.097 310.484 439.526 313.557 438.194C322.121 434.482 326.363 431.929 334.176 424.157C336.551 421.794 340.391 421.804 342.753 424.179Z" fill="#DDBD85"/>
<path fill-rule="evenodd" clip-rule="evenodd" d="M374.394 374.824C377.647 375.621 379.638 378.905 378.84 382.158C375.103 397.404 364.986 410.027 359.1 416.958C356.932 419.511 353.104 419.823 350.551 417.655C347.998 415.487 347.686 411.659 349.854 409.106C355.673 402.255 364.058 391.513 367.06 379.27C367.857 376.017 371.141 374.026 374.394 374.824Z" fill="#DDBD85"/>
<path fill-rule="evenodd" clip-rule="evenodd" d="M354.362 449.789C356.791 452.096 356.891 455.934 354.584 458.363C351.969 461.118 348.037 464.195 344.604 466.615C342.845 467.855 341.116 468.993 339.614 469.904C338.249 470.731 336.679 471.615 335.385 472.084C332.236 473.225 328.758 471.598 327.617 468.448C326.476 465.299 328.103 461.821 331.252 460.68C331.237 460.686 331.238 460.686 331.254 460.678C331.3 460.658 331.471 460.581 331.797 460.409C332.198 460.196 332.712 459.903 333.325 459.532C334.549 458.789 336.043 457.809 337.616 456.701C340.844 454.426 344.002 451.893 345.788 450.012C348.094 447.583 351.933 447.483 354.362 449.789Z" fill="#DDBD85"/>
<path fill-rule="evenodd" clip-rule="evenodd" d="M96.8606 223.738C94.9909 220.959 91.2222 220.222 88.4431 222.091C85.2913 224.212 81.6026 227.576 78.6448 230.559C77.1302 232.087 75.7202 233.602 74.5717 234.932C73.5282 236.14 72.3956 237.541 71.7179 238.739C70.0683 241.654 71.0943 245.354 74.0095 247.004C76.9247 248.653 80.6251 247.627 82.2746 244.712C82.2668 244.726 82.2668 244.726 82.2768 244.711C82.3045 244.669 82.4086 244.513 82.6329 244.22C82.909 243.86 83.2835 243.402 83.752 242.86C84.6879 241.776 85.9033 240.466 87.2578 239.1C90.0382 236.296 93.0616 233.604 95.214 232.155C97.9931 230.286 98.7303 226.517 96.8606 223.738Z" fill="#DDBD85"/>
<path fill-rule="evenodd" clip-rule="evenodd" d="M299.55 229.608C275.746 209.109 243.39 197.24 211.255 199.25C185.511 200.861 161.691 210.949 142.243 223.132C122.788 235.319 108.071 249.376 100.603 258.391C98.4656 260.97 94.6424 261.329 92.063 259.192C89.4837 257.055 89.1251 253.232 91.262 250.652C99.5602 240.636 115.258 225.723 135.804 212.853C156.358 199.977 182.127 188.919 210.498 187.144C246.007 184.923 281.429 197.995 307.465 220.416C333.531 242.862 350.57 275.045 348.382 311.13C344.955 367.663 311.333 397.605 293.806 405.735C290.768 407.145 287.162 405.824 285.752 402.786C284.343 399.747 285.663 396.141 288.702 394.732C302.489 388.337 333.137 362.154 336.275 310.396C338.19 278.798 323.326 250.082 299.55 229.608Z" fill="#DDBD85"/>
</svg>
