<svg width="530" height="198" viewBox="0 0 530 198" fill="none" xmlns="http://www.w3.org/2000/svg">
<path d="M430.448 105.844C426.868 105.844 423.58 104.9 420.585 103.012C417.59 101.124 415.181 98.6172 413.358 95.4922C411.601 92.3021 410.722 88.7539 410.722 84.8477C410.722 80.2904 411.568 76.3516 413.261 73.0312C414.953 69.7109 417.265 67.1719 420.194 65.4141C423.124 63.5911 426.412 62.6797 430.058 62.6797C433.052 62.6797 435.689 63.2656 437.968 64.4375C440.246 65.5443 442.004 66.9766 443.241 68.7344C444.413 70.5573 445.259 72.4128 445.78 74.3008C446.366 76.1237 446.659 77.9466 446.659 79.7695C446.659 81.0716 446.464 81.8854 446.073 82.2109C445.683 82.4714 444.934 82.6016 443.827 82.6016H419.218C418.697 82.6016 418.437 82.7643 418.437 83.0898C418.437 85.8242 418.99 88.4609 420.097 91C421.203 93.474 422.831 95.5247 424.979 97.1523C427.128 98.7799 429.765 99.5938 432.89 99.5938C435.624 99.5938 437.903 99.2031 439.726 98.4219C441.614 97.5755 442.981 96.8268 443.827 96.1758L444.511 95.6875C444.901 95.6875 445.097 96.1107 445.097 96.957C445.097 97.4128 444.901 97.9987 444.511 98.7148C443.209 100.538 441.288 102.198 438.749 103.695C436.21 105.128 433.443 105.844 430.448 105.844ZM419.218 78.5H438.261C438.586 78.5 438.749 78.1745 438.749 77.5234C438.749 76.0911 438.358 74.5286 437.577 72.8359C436.861 71.0781 435.754 69.5482 434.257 68.2461C432.759 66.944 430.871 66.293 428.593 66.293C426.509 66.293 424.719 67.0091 423.222 68.4414C421.724 69.8086 420.585 71.4036 419.804 73.2266C419.022 74.9844 418.632 76.5143 418.632 77.8164C418.632 78.2721 418.827 78.5 419.218 78.5Z" fill="#264468"/>
<path d="M365.429 105.551C365.168 105.29 365.038 104.737 365.038 103.891C365.038 103.109 365.168 102.719 365.429 102.719C365.95 102.719 366.666 102.621 367.577 102.426C368.489 102.23 369.335 101.97 370.116 101.645C370.897 101.319 371.321 101.026 371.386 100.766C371.646 99.8542 371.809 98.8125 371.874 97.6406C372.004 96.4688 372.069 95.2318 372.069 93.9297V58.6445C372.069 56.431 371.874 54.3477 371.483 52.3945C371.223 51.3529 369.563 50.832 366.503 50.832H365.624C365.233 50.832 365.038 50.474 365.038 49.7578C365.038 48.7161 365.233 48.1953 365.624 48.1953C368.944 47.8698 371.744 47.349 374.022 46.6328C376.301 45.8516 377.864 45.2331 378.71 44.7773L379.198 44.4844H379.394C379.654 44.4844 379.914 44.6797 380.175 45.0703C380.435 45.3958 380.598 45.7214 380.663 46.0469C379.947 48.1953 379.589 51.0273 379.589 54.543V81.7227C380.891 81.4622 381.705 81.1693 382.03 80.8438L386.522 77.0352L390.038 74.1055C391.145 73.194 392.089 72.3477 392.87 71.5664C393.716 70.7852 394.14 70.069 394.14 69.418C394.14 68.5716 393.424 68.1159 391.991 68.0508C390.689 67.9857 389.94 67.8555 389.745 67.6602C389.224 66.3581 389.257 65.6094 389.843 65.4141H397.558C399.836 65.4141 401.692 65.349 403.124 65.2188C404.556 65.0885 406.282 64.9909 408.3 64.9258C408.69 64.9909 408.853 65.4792 408.788 66.3906C408.723 67.237 408.528 67.6602 408.202 67.6602C407.681 67.6602 406.933 67.7578 405.956 67.9531C405.045 68.1484 404.166 68.3763 403.319 68.6367C402.473 68.832 401.854 69.0599 401.464 69.3203C400.748 69.7109 399.511 70.5573 397.753 71.8594C396.06 73.1615 394.237 74.6589 392.284 76.3516C390.331 77.9792 388.573 79.5742 387.011 81.1367C392.024 86.4753 395.93 90.7721 398.729 94.0273C401.594 97.2826 403.45 99.3008 404.296 100.082C405.403 100.993 406.802 101.71 408.495 102.23C410.188 102.686 411.392 102.914 412.108 102.914C412.369 102.914 412.499 103.435 412.499 104.477C412.499 105.128 412.466 105.486 412.401 105.551L401.757 105.062L391.601 105.551C391.34 105.29 391.21 104.77 391.21 103.988C391.21 103.272 391.34 102.914 391.601 102.914C392.252 102.914 393 102.784 393.847 102.523C394.693 102.263 395.116 101.97 395.116 101.645C395.116 101.514 395.084 101.417 395.019 101.352L380.761 85.9219L379.589 86.2148V92.0742C379.589 94.2227 379.654 96.0456 379.784 97.543C379.979 98.9753 380.175 100.049 380.37 100.766C380.5 101.026 380.956 101.319 381.737 101.645C382.519 101.97 383.365 102.23 384.276 102.426C385.188 102.621 385.839 102.719 386.229 102.719C386.425 102.719 386.555 103.109 386.62 103.891C386.685 104.672 386.653 105.225 386.522 105.551L376.073 105.062L365.429 105.551Z" fill="#264468"/>
<path d="M343.866 105.941C339.96 105.941 336.379 104.965 333.124 103.012C329.869 101.059 327.265 98.4219 325.312 95.1016C323.424 91.7812 322.479 88.1354 322.479 84.1641C322.479 80.1276 323.391 76.4818 325.214 73.2266C327.102 69.9714 329.641 67.3997 332.831 65.5117C336.021 63.5586 339.634 62.582 343.671 62.582C347.577 62.582 351.125 63.5586 354.315 65.5117C357.571 67.4648 360.142 70.069 362.03 73.3242C363.983 76.5794 364.96 80.1927 364.96 84.1641C364.96 88.1354 364.016 91.7812 362.128 95.1016C360.24 98.4219 357.701 101.059 354.511 103.012C351.386 104.965 347.838 105.941 343.866 105.941ZM344.745 102.133C347.089 102.133 349.14 101.384 350.897 99.8867C352.655 98.3893 354.022 96.3711 354.999 93.832C356.041 91.293 356.562 88.526 356.562 85.5312C356.562 82.0156 355.91 78.8255 354.608 75.9609C353.306 73.0312 351.581 70.7201 349.433 69.0273C347.349 67.2695 345.071 66.3906 342.597 66.3906C340.318 66.3906 338.267 67.1393 336.444 68.6367C334.687 70.069 333.319 72.0221 332.343 74.4961C331.366 76.9049 330.878 79.6393 330.878 82.6992C330.878 86.2148 331.496 89.4701 332.733 92.4648C334.035 95.3945 335.728 97.7383 337.812 99.4961C339.96 101.254 342.271 102.133 344.745 102.133Z" fill="#264468"/>
<path d="M283.015 121.328C282.754 121.068 282.624 120.547 282.624 119.766C282.624 118.919 282.754 118.496 283.015 118.496C283.535 118.496 284.252 118.398 285.163 118.203C286.075 118.008 286.921 117.747 287.702 117.422C288.483 117.096 288.907 116.803 288.972 116.543C289.232 115.632 289.395 114.59 289.46 113.418C289.59 112.246 289.655 111.009 289.655 109.707V75.375C289.655 72.901 289.2 71.1432 288.288 70.1016C287.637 69.3203 286.856 68.7995 285.944 68.5391C285.098 68.2786 284.317 68.1484 283.601 68.1484C282.95 68.0833 282.624 67.9857 282.624 67.8555C282.624 66.293 282.819 65.4792 283.21 65.4141C290.111 64.3724 294.538 63.5586 296.491 62.9727L297.175 62.7773C297.5 62.7773 297.631 63.1354 297.565 63.8516C297.5 64.5026 297.435 65.056 297.37 65.5117L297.272 66.0977C297.924 65.6419 298.835 65.1536 300.007 64.6328C301.179 64.112 302.416 63.6562 303.718 63.2656C305.085 62.875 306.257 62.6797 307.233 62.6797C311.66 62.6797 315.339 63.6888 318.269 65.707C321.263 67.6602 323.477 70.1667 324.909 73.2266C326.407 76.2214 327.155 79.2812 327.155 82.4062C327.155 85.5312 326.569 88.526 325.397 91.3906C324.226 94.1901 322.631 96.6966 320.612 98.9102C318.594 101.124 316.283 102.882 313.679 104.184C311.14 105.421 308.503 106.039 305.769 106.039C303.75 106.039 302.22 105.876 301.179 105.551C300.137 105.29 298.933 104.835 297.565 104.184C297.305 104.444 297.175 104.867 297.175 105.453V107.852C297.175 109.74 297.24 111.4 297.37 112.832C297.5 114.264 297.696 115.501 297.956 116.543C298.086 116.803 298.542 117.096 299.323 117.422C300.104 117.747 300.951 118.008 301.862 118.203C302.774 118.398 303.425 118.496 303.815 118.496C304.011 118.496 304.141 118.887 304.206 119.668C304.271 120.514 304.239 121.068 304.108 121.328L293.659 120.84L283.015 121.328ZM306.159 101.938C308.763 101.938 310.977 101.156 312.8 99.5938C314.688 97.9661 316.153 95.8828 317.194 93.3438C318.236 90.7396 318.757 88.0052 318.757 85.1406C318.757 81.4948 318.073 78.3698 316.706 75.7656C315.404 73.0964 313.646 71.0456 311.433 69.6133C309.219 68.181 306.778 67.4648 304.108 67.4648C302.09 67.4648 300.43 68.0182 299.128 69.125C297.826 70.1667 297.175 71.6966 297.175 73.7148V95.6875C297.175 97.4453 298.119 98.9427 300.007 100.18C301.895 101.352 303.946 101.938 306.159 101.938Z" fill="#264468"/>
<path d="M265.995 106.332C263.977 106.332 262.154 106.104 260.526 105.648C258.899 105.193 256.913 104.802 254.569 104.477C254.309 103.76 254.049 102.784 253.788 101.547C253.528 100.31 253.3 99.0078 253.104 97.6406C252.974 96.2734 252.909 95.1667 252.909 94.3203C253.43 93.9297 253.821 93.7344 254.081 93.7344C255.058 93.7344 255.578 93.9297 255.644 94.3203C255.904 95.6224 256.555 96.9245 257.597 98.2266C258.638 99.5286 259.908 100.635 261.405 101.547C262.903 102.393 264.433 102.816 265.995 102.816C268.078 102.816 269.771 102.263 271.073 101.156C272.44 99.9844 273.124 98.3242 273.124 96.1758C273.124 93.8971 272.245 92.0091 270.487 90.5117C269.12 89.4049 267.948 88.6237 266.972 88.168C266.06 87.6471 265.149 87.1914 264.237 86.8008C263.391 86.3451 262.317 85.7266 261.015 84.9453C255.937 82.0156 253.397 78.5326 253.397 74.4961C253.397 72.1523 254.049 70.1016 255.351 68.3438C256.653 66.5208 258.378 65.1211 260.526 64.1445C262.74 63.1029 265.084 62.582 267.558 62.582C268.274 62.582 269.088 62.6471 269.999 62.7773C270.91 62.8424 271.92 62.9401 273.026 63.0703C274.133 63.2656 275.045 63.4284 275.761 63.5586C276.477 63.6888 277.063 63.7865 277.519 63.8516C278.235 66.8464 278.625 70.1667 278.69 73.8125C278.69 74.138 278.267 74.3008 277.421 74.3008C276.509 74.3008 276.021 74.0729 275.956 73.6172C275.631 71.7943 274.687 70.069 273.124 68.4414C271.627 66.8138 269.901 66 267.948 66C263.261 66 260.917 67.9206 260.917 71.7617C260.917 72.7383 261.015 73.6172 261.21 74.3984C261.47 75.1146 262.024 75.7982 262.87 76.4492C264.888 78.0117 267.265 79.5742 269.999 81.1367C272.799 82.6992 275.11 84.1641 276.933 85.5312C279.667 87.6146 281.034 90.056 281.034 92.8555C281.034 95.3945 280.351 97.7057 278.983 99.7891C277.616 101.807 275.793 103.402 273.515 104.574C271.236 105.746 268.729 106.332 265.995 106.332Z" fill="#264468"/>
<path d="M232.253 105.844C228.672 105.844 225.384 104.9 222.39 103.012C219.395 101.124 216.986 98.6172 215.163 95.4922C213.405 92.3021 212.526 88.7539 212.526 84.8477C212.526 80.2904 213.373 76.3516 215.065 73.0312C216.758 69.7109 219.069 67.1719 221.999 65.4141C224.929 63.5911 228.216 62.6797 231.862 62.6797C234.857 62.6797 237.494 63.2656 239.772 64.4375C242.051 65.5443 243.809 66.9766 245.046 68.7344C246.218 70.5573 247.064 72.4128 247.585 74.3008C248.171 76.1237 248.464 77.9466 248.464 79.7695C248.464 81.0716 248.269 81.8854 247.878 82.2109C247.487 82.4714 246.739 82.6016 245.632 82.6016H221.022C220.502 82.6016 220.241 82.7643 220.241 83.0898C220.241 85.8242 220.795 88.4609 221.901 91C223.008 93.474 224.636 95.5247 226.784 97.1523C228.933 98.7799 231.569 99.5938 234.694 99.5938C237.429 99.5938 239.707 99.2031 241.53 98.4219C243.418 97.5755 244.785 96.8268 245.632 96.1758L246.315 95.6875C246.706 95.6875 246.901 96.1107 246.901 96.957C246.901 97.4128 246.706 97.9987 246.315 98.7148C245.013 100.538 243.093 102.198 240.554 103.695C238.015 105.128 235.248 105.844 232.253 105.844ZM221.022 78.5H240.065C240.391 78.5 240.554 78.1745 240.554 77.5234C240.554 76.0911 240.163 74.5286 239.382 72.8359C238.666 71.0781 237.559 69.5482 236.062 68.2461C234.564 66.944 232.676 66.293 230.397 66.293C228.314 66.293 226.524 67.0091 225.026 68.4414C223.529 69.8086 222.39 71.4036 221.608 73.2266C220.827 74.9844 220.437 76.5143 220.437 77.8164C220.437 78.2721 220.632 78.5 221.022 78.5Z" fill="#264468"/>
<path d="M158.007 105.551C157.812 105.355 157.714 104.835 157.714 103.988C157.714 103.142 157.812 102.719 158.007 102.719C158.593 102.719 159.374 102.621 160.351 102.426C161.327 102.165 162.239 101.872 163.085 101.547C163.996 101.221 164.55 100.863 164.745 100.473C165.201 99.7565 165.429 96.6966 165.429 91.293V54.3789C165.429 52.4909 165.364 50.8307 165.233 49.3984C165.168 47.9661 165.006 46.8268 164.745 45.9805C164.615 45.5898 164.094 45.2318 163.183 44.9062C162.336 44.5807 161.392 44.3203 160.351 44.125C159.374 43.9297 158.593 43.832 158.007 43.832C157.746 43.832 157.616 43.4414 157.616 42.6602C157.616 41.8138 157.746 41.2604 158.007 41C159.7 41.0651 161.49 41.1302 163.378 41.1953C165.331 41.1953 167.414 41.1953 169.628 41.1953L177.831 41.0977H183.397C184.244 41.0977 185.09 41.1302 185.937 41.1953C186.848 41.2604 187.727 41.3581 188.573 41.4883C191.177 41.944 193.619 42.8229 195.897 44.125C198.241 45.362 200.129 47.0547 201.562 49.2031C203.059 51.3516 203.808 53.9883 203.808 57.1133C203.808 59.3919 203.059 61.5729 201.562 63.6562C200.064 65.6745 198.664 67.0742 197.362 67.8555C196.125 68.6367 195.051 69.1901 194.14 69.5156C193.619 69.7109 193.456 69.9062 193.651 70.1016C194.953 70.2969 196.418 70.8828 198.046 71.8594C199.674 72.8359 201.236 74.1055 202.733 75.668C204.231 77.1654 205.468 78.8906 206.444 80.8438C207.486 82.7969 208.007 84.8477 208.007 86.9961C208.007 90.707 206.965 93.9297 204.882 96.6641C202.864 99.3984 199.999 101.514 196.288 103.012C192.577 104.509 188.215 105.258 183.202 105.258H169.823L158.007 105.551ZM180.37 68.832C182.453 68.832 184.276 68.7344 185.839 68.5391C188.508 68.2786 190.722 67.3672 192.479 65.8047C194.302 64.1771 195.214 62.0286 195.214 59.3594C195.214 54.8672 194.075 51.3841 191.796 48.9102C189.582 46.3711 186.262 45.1016 181.835 45.1016C178.775 45.1016 176.464 45.3294 174.901 45.7852C174.511 45.8503 174.315 46.1432 174.315 46.6641L173.925 56.5273V68.1484C173.925 68.6042 176.073 68.832 180.37 68.832ZM180.761 100.863C182.388 100.863 183.983 100.733 185.546 100.473C187.174 100.212 189.094 99.6914 191.308 98.9102C193.521 98.194 195.312 96.9245 196.679 95.1016C198.046 93.2135 198.729 90.8698 198.729 88.0703C198.729 85.2708 198.111 82.7318 196.874 80.4531C195.637 78.1745 193.749 76.3516 191.21 74.9844C188.671 73.6172 185.383 72.9336 181.347 72.9336C180.631 72.9336 179.687 72.9661 178.515 73.0312C177.343 73.0964 175.943 73.194 174.315 73.3242C174.055 74.0404 173.925 75.1146 173.925 76.5469V90.8047C173.925 95.7526 174.446 98.6497 175.487 99.4961C176.529 100.408 178.287 100.863 180.761 100.863Z" fill="#264468"/>
<path d="M433.842 146.75H445.182V149H431.442V129.2H433.842V146.75Z" fill="#9C9C9C"/>
<path d="M411.818 149H409.268L407.168 143.51H398.198L396.098 149H393.578L401.288 129.2H404.138L411.818 149ZM399.068 141.26H406.298L402.668 131.51L399.068 141.26Z" fill="#9C9C9C"/>
<path d="M373.961 129.2V149H371.561V129.2H373.961Z" fill="#9C9C9C"/>
<path d="M351.354 143.93C350.934 145.05 350.334 146.02 349.554 146.84C348.774 147.64 347.854 148.25 346.794 148.67C345.754 149.09 344.614 149.3 343.374 149.3C341.494 149.3 339.864 148.89 338.484 148.07C337.124 147.23 336.064 146.05 335.304 144.53C334.564 143.01 334.194 141.2 334.194 139.1C334.194 137 334.564 135.19 335.304 133.67C336.064 132.15 337.124 130.98 338.484 130.16C339.864 129.32 341.474 128.9 343.314 128.9C344.594 128.9 345.734 129.08 346.734 129.44C347.734 129.78 348.584 130.3 349.284 131C350.004 131.68 350.574 132.52 350.994 133.52L348.624 134.63C348.184 133.49 347.544 132.63 346.704 132.05C345.884 131.45 344.814 131.15 343.494 131.15C342.154 131.15 340.974 131.47 339.954 132.11C338.934 132.73 338.134 133.63 337.554 134.81C336.994 135.99 336.714 137.42 336.714 139.1C336.714 140.76 336.984 142.19 337.524 143.39C338.064 144.57 338.834 145.48 339.834 146.12C340.834 146.74 342.014 147.05 343.374 147.05C344.694 147.05 345.844 146.72 346.824 146.06C347.804 145.38 348.514 144.37 348.954 143.03L351.354 143.93Z" fill="#9C9C9C"/>
<path d="M313.303 129.2V149H310.333L302.053 135.74L299.953 132.02H299.923L300.043 135.02V149H297.763V129.2H300.733L308.983 142.4L311.113 146.21H311.143L311.023 143.18V129.2H313.303Z" fill="#9C9C9C"/>
<path d="M278.138 149H275.588L273.488 143.51H264.518L262.418 149H259.898L267.608 129.2H270.458L278.138 149ZM265.388 141.26H272.618L268.988 131.51L265.388 141.26Z" fill="#9C9C9C"/>
<path d="M240.268 129.2V149H237.298L229.018 135.74L226.918 132.02H226.888L227.008 135.02V149H224.728V129.2H227.698L235.948 142.4L238.078 146.21H238.108L237.988 143.18V129.2H240.268Z" fill="#9C9C9C"/>
<path d="M202.65 129.2V149H200.25V129.2H202.65Z" fill="#9C9C9C"/>
<path d="M180.2 131.45H168.74V137.84H177.68V140.09H168.74V149H166.34V129.2H180.2V131.45Z" fill="#9C9C9C"/>
<path d="M433.842 146.75H445.182V149H431.442V129.2H433.842V146.75Z" fill="#9C9C9C"/>
<path d="M411.818 149H409.268L407.168 143.51H398.198L396.098 149H393.578L401.288 129.2H404.138L411.818 149ZM399.068 141.26H406.298L402.668 131.51L399.068 141.26Z" fill="#9C9C9C"/>
<path d="M373.961 129.2V149H371.561V129.2H373.961Z" fill="#9C9C9C"/>
<path d="M351.354 143.93C350.934 145.05 350.334 146.02 349.554 146.84C348.774 147.64 347.854 148.25 346.794 148.67C345.754 149.09 344.614 149.3 343.374 149.3C341.494 149.3 339.864 148.89 338.484 148.07C337.124 147.23 336.064 146.05 335.304 144.53C334.564 143.01 334.194 141.2 334.194 139.1C334.194 137 334.564 135.19 335.304 133.67C336.064 132.15 337.124 130.98 338.484 130.16C339.864 129.32 341.474 128.9 343.314 128.9C344.594 128.9 345.734 129.08 346.734 129.44C347.734 129.78 348.584 130.3 349.284 131C350.004 131.68 350.574 132.52 350.994 133.52L348.624 134.63C348.184 133.49 347.544 132.63 346.704 132.05C345.884 131.45 344.814 131.15 343.494 131.15C342.154 131.15 340.974 131.47 339.954 132.11C338.934 132.73 338.134 133.63 337.554 134.81C336.994 135.99 336.714 137.42 336.714 139.1C336.714 140.76 336.984 142.19 337.524 143.39C338.064 144.57 338.834 145.48 339.834 146.12C340.834 146.74 342.014 147.05 343.374 147.05C344.694 147.05 345.844 146.72 346.824 146.06C347.804 145.38 348.514 144.37 348.954 143.03L351.354 143.93Z" fill="#9C9C9C"/>
<path d="M313.303 129.2V149H310.333L302.053 135.74L299.953 132.02H299.923L300.043 135.02V149H297.763V129.2H300.733L308.983 142.4L311.113 146.21H311.143L311.023 143.18V129.2H313.303Z" fill="#9C9C9C"/>
<path d="M278.138 149H275.588L273.488 143.51H264.518L262.418 149H259.898L267.608 129.2H270.458L278.138 149ZM265.388 141.26H272.618L268.988 131.51L265.388 141.26Z" fill="#9C9C9C"/>
<path d="M240.268 129.2V149H237.298L229.018 135.74L226.918 132.02H226.888L227.008 135.02V149H224.728V129.2H227.698L235.948 142.4L238.078 146.21H238.108L237.988 143.18V129.2H240.268Z" fill="#9C9C9C"/>
<path d="M202.65 129.2V149H200.25V129.2H202.65Z" fill="#9C9C9C"/>
<path d="M180.2 131.45H168.74V137.84H177.68V140.09H168.74V149H166.34V129.2H180.2V131.45Z" fill="#9C9C9C"/>
<path d="M433.842 146.75H445.182V149H431.442V129.2H433.842V146.75Z" fill="#9C9C9C"/>
<path d="M411.818 149H409.268L407.168 143.51H398.198L396.098 149H393.578L401.288 129.2H404.138L411.818 149ZM399.068 141.26H406.298L402.668 131.51L399.068 141.26Z" fill="#9C9C9C"/>
<path d="M373.961 129.2V149H371.561V129.2H373.961Z" fill="#9C9C9C"/>
<path d="M351.354 143.93C350.934 145.05 350.334 146.02 349.554 146.84C348.774 147.64 347.854 148.25 346.794 148.67C345.754 149.09 344.614 149.3 343.374 149.3C341.494 149.3 339.864 148.89 338.484 148.07C337.124 147.23 336.064 146.05 335.304 144.53C334.564 143.01 334.194 141.2 334.194 139.1C334.194 137 334.564 135.19 335.304 133.67C336.064 132.15 337.124 130.98 338.484 130.16C339.864 129.32 341.474 128.9 343.314 128.9C344.594 128.9 345.734 129.08 346.734 129.44C347.734 129.78 348.584 130.3 349.284 131C350.004 131.68 350.574 132.52 350.994 133.52L348.624 134.63C348.184 133.49 347.544 132.63 346.704 132.05C345.884 131.45 344.814 131.15 343.494 131.15C342.154 131.15 340.974 131.47 339.954 132.11C338.934 132.73 338.134 133.63 337.554 134.81C336.994 135.99 336.714 137.42 336.714 139.1C336.714 140.76 336.984 142.19 337.524 143.39C338.064 144.57 338.834 145.48 339.834 146.12C340.834 146.74 342.014 147.05 343.374 147.05C344.694 147.05 345.844 146.72 346.824 146.06C347.804 145.38 348.514 144.37 348.954 143.03L351.354 143.93Z" fill="#9C9C9C"/>
<path d="M313.303 129.2V149H310.333L302.053 135.74L299.953 132.02H299.923L300.043 135.02V149H297.763V129.2H300.733L308.983 142.4L311.113 146.21H311.143L311.023 143.18V129.2H313.303Z" fill="#9C9C9C"/>
<path d="M278.138 149H275.588L273.488 143.51H264.518L262.418 149H259.898L267.608 129.2H270.458L278.138 149ZM265.388 141.26H272.618L268.988 131.51L265.388 141.26Z" fill="#9C9C9C"/>
<path d="M240.268 129.2V149H237.298L229.018 135.74L226.918 132.02H226.888L227.008 135.02V149H224.728V129.2H227.698L235.948 142.4L238.078 146.21H238.108L237.988 143.18V129.2H240.268Z" fill="#9C9C9C"/>
<path d="M202.65 129.2V149H200.25V129.2H202.65Z" fill="#9C9C9C"/>
<path d="M180.2 131.45H168.74V137.84H177.68V140.09H168.74V149H166.34V129.2H180.2V131.45Z" fill="#9C9C9C"/>
<path fill-rule="evenodd" clip-rule="evenodd" d="M125.253 63.1988C125.735 62.525 126.672 62.3694 127.346 62.8514L126.473 64.0714C127.346 62.8514 127.346 62.8513 127.346 62.8514L127.352 62.8558L127.365 62.8649L127.408 62.8966C127.446 62.9238 127.499 62.9631 127.568 63.0142C127.704 63.1164 127.902 63.2659 128.151 63.4607C128.648 63.8501 129.354 64.4209 130.198 65.1564C131.884 66.6259 134.133 68.7617 136.389 71.4308C136.923 72.0635 136.844 73.0099 136.211 73.5446C135.578 74.0793 134.632 73.9998 134.097 73.3671C131.963 70.8416 129.828 68.8137 128.227 67.418C127.427 66.721 126.763 66.184 126.302 65.8236C126.072 65.6434 125.893 65.5076 125.773 65.4182C125.713 65.3735 125.668 65.3404 125.639 65.3192L125.608 65.2963L125.601 65.2916C125.601 65.2915 125.601 65.2917 125.601 65.2916M125.253 63.1988C124.772 63.8725 124.927 64.8096 125.601 65.2916L125.253 63.1988Z" fill="#DDBD85"/>
<path fill-rule="evenodd" clip-rule="evenodd" d="M131.771 61.4746C132.117 60.7218 133.007 60.3918 133.76 60.7377L133.134 62.1007C133.76 60.7377 133.76 60.7375 133.76 60.7377L133.763 60.7389L133.766 60.7405L133.775 60.7447L133.802 60.7572C133.823 60.7674 133.852 60.7812 133.887 60.7985C133.957 60.8332 134.053 60.8823 134.169 60.9454C134.401 61.071 134.719 61.2546 135.074 61.4923C135.76 61.9528 136.683 62.6827 137.34 63.6679C137.799 64.3572 137.613 65.2885 136.924 65.748C136.234 66.2076 135.303 66.0213 134.844 65.332C134.5 64.8173 133.945 64.3475 133.402 63.9834C133.142 63.8088 132.908 63.6739 132.742 63.584C132.659 63.5393 132.595 63.5064 132.554 63.4861C132.533 63.4759 132.519 63.4689 132.511 63.4652L132.504 63.4621C131.754 63.1151 131.426 62.2261 131.771 61.4746Z" fill="#DDBD85"/>
<path fill-rule="evenodd" clip-rule="evenodd" d="M117.718 66.5537C118.174 65.8623 119.105 65.6718 119.796 66.1282C126.173 70.3377 128.718 73.1189 134.356 79.6766C134.896 80.3048 134.825 81.2519 134.197 81.7919C133.569 82.332 132.621 82.2606 132.081 81.6324C126.503 75.1444 124.173 72.612 118.143 68.6319C117.452 68.1755 117.261 67.2451 117.718 66.5537Z" fill="#DDBD85"/>
<path fill-rule="evenodd" clip-rule="evenodd" d="M108.706 69.5878C109.117 68.8684 110.033 68.6181 110.753 69.0288C110.947 69.1398 111.146 69.2531 111.35 69.3687C117.72 72.9946 128.136 78.9224 133.218 92.1278C133.516 92.9009 133.13 93.7689 132.357 94.0665C131.584 94.364 130.716 93.9785 130.419 93.2053C125.726 81.0122 116.133 75.5469 109.772 71.9232C109.601 71.8255 109.432 71.7292 109.266 71.6341C108.546 71.2234 108.296 70.3073 108.706 69.5878Z" fill="#DDBD85"/>
<path fill-rule="evenodd" clip-rule="evenodd" d="M119.98 88.954C111.453 78.8635 104.042 76.4393 98.0626 75.6309C97.2416 75.5199 96.6661 74.7644 96.7771 73.9434C96.8881 73.1225 97.6436 72.5469 98.4645 72.6579C105.141 73.5606 113.24 76.3302 122.271 87.0177C122.806 87.6505 122.726 88.5969 122.094 89.1316C121.461 89.6663 120.514 89.5868 119.98 88.954Z" fill="#DDBD85"/>
<path fill-rule="evenodd" clip-rule="evenodd" d="M85.5531 88.1627C85.7394 88.9699 85.236 89.7753 84.4288 89.9616C78.3332 91.3683 73.5761 95.1367 69.8423 98.8666C69.2562 99.4521 68.3065 99.4516 67.721 98.8655C67.1355 98.2794 67.136 97.3297 67.7221 96.7442C71.607 92.8633 76.8499 88.6317 83.7543 87.0384C84.5615 86.8521 85.3669 87.3555 85.5531 88.1627Z" fill="#DDBD85"/>
<path fill-rule="evenodd" clip-rule="evenodd" d="M105.955 112.066C106.76 112.264 107.252 113.076 107.055 113.88C106.849 114.722 106.224 115.621 105.579 116.424C104.883 117.289 103.967 118.276 102.926 119.326C102.343 119.914 101.393 119.919 100.805 119.335C100.216 118.752 100.212 117.803 100.795 117.214C101.807 116.193 102.64 115.292 103.241 114.544C103.541 114.171 103.766 113.856 103.923 113.6C104.001 113.473 104.055 113.371 104.092 113.292C104.11 113.253 104.122 113.222 104.13 113.2C104.134 113.189 104.137 113.181 104.139 113.175L104.141 113.168L104.141 113.167L104.141 113.166C104.141 113.166 104.141 113.166 104.141 113.166C104.141 113.166 104.141 113.166 104.141 113.166C104.141 113.166 104.141 113.166 104.141 113.166C104.141 113.166 104.141 113.166 104.141 113.166C104.141 113.166 104.141 113.166 104.141 113.166C104.141 113.166 104.141 113.166 104.141 113.166" fill="#DDBD85"/>
<path fill-rule="evenodd" clip-rule="evenodd" d="M101.785 99.2079C99.3345 97.1152 95.9789 96.0521 92.7172 95.9202C89.2725 95.781 85.796 96.6148 82.905 97.8073C79.9726 99.017 77.838 100.513 76.9715 101.533C76.4353 102.165 75.4887 102.242 74.8572 101.706C74.2258 101.169 74.1486 100.223 74.6849 99.5914C75.9895 98.0552 78.6176 96.3307 81.761 95.034C84.946 93.7202 88.8587 92.7618 92.8384 92.9227C96.6078 93.075 100.659 94.3011 103.733 96.9267C106.858 99.5962 108.862 103.623 108.59 109.075C108.548 109.902 107.844 110.539 107.017 110.498C106.189 110.457 105.552 109.753 105.593 108.925C105.821 104.377 104.183 101.257 101.785 99.2079Z" fill="#DDBD85"/>
<path fill-rule="evenodd" clip-rule="evenodd" d="M112.316 105.41C111.318 98.7456 107.625 94.542 103.178 92.0221C98.6687 89.4662 93.3854 88.6538 89.4445 88.9003C88.6177 88.9521 87.9055 88.3237 87.8538 87.4969C87.802 86.6701 88.4304 85.9579 89.2572 85.9062C93.6814 85.6294 99.5625 86.5245 104.658 89.4122C109.806 92.3299 114.151 97.2919 115.291 105.021L115.298 105.069L115.302 105.118C116.252 116.774 110.247 123.622 106.185 126.085C105.477 126.514 104.554 126.288 104.125 125.579C103.695 124.871 103.922 123.948 104.63 123.519C107.82 121.586 113.144 115.786 112.316 105.41Z" fill="#DDBD85"/>
<path fill-rule="evenodd" clip-rule="evenodd" d="M90.2998 102.306C88.1311 102.783 86.1305 103.927 84.6235 104.84C83.9151 105.27 82.9927 105.043 82.5632 104.335C82.1337 103.627 82.3599 102.704 83.0683 102.275C84.5847 101.355 86.957 99.9699 89.6554 99.3764C92.405 98.7716 95.5683 98.9772 98.4969 101.303C100.561 102.791 101.699 104.818 101.776 107.1C101.853 109.341 100.902 111.611 99.2401 113.655C98.7174 114.298 97.7727 114.395 97.1299 113.873C96.4872 113.35 96.3898 112.405 96.9124 111.762C98.2661 110.098 98.8229 108.514 98.7782 107.202C98.7353 105.944 98.1344 104.731 96.7198 103.721L96.6865 103.697L96.6545 103.671C94.5921 102.021 92.4072 101.843 90.2998 102.306Z" fill="#DDBD85"/>
<path fill-rule="evenodd" clip-rule="evenodd" d="M123.449 91.4527C124.205 91.1161 125.092 91.4569 125.429 92.2138C133.698 110.811 125.891 129.827 113.668 137.672C112.971 138.12 112.043 137.917 111.596 137.22C111.148 136.523 111.35 135.595 112.048 135.148C123.04 128.092 130.347 110.658 122.687 93.4327C122.351 92.6757 122.692 91.7892 123.449 91.4527Z" fill="#DDBD85"/>
<path fill-rule="evenodd" clip-rule="evenodd" d="M121.691 137.257C122.276 137.844 122.273 138.794 121.686 139.378C119.467 141.586 118.097 142.421 115.663 143.476C114.903 143.805 114.02 143.456 113.691 142.696C113.361 141.936 113.71 141.053 114.47 140.723C116.589 139.805 117.638 139.174 119.57 137.251C120.157 136.667 121.107 136.67 121.691 137.257Z" fill="#DDBD85"/>
<path fill-rule="evenodd" clip-rule="evenodd" d="M129.517 125.05C130.322 125.247 130.814 126.059 130.617 126.864C129.693 130.635 127.19 133.757 125.735 135.471C125.198 136.102 124.252 136.18 123.62 135.643C122.989 135.107 122.912 134.16 123.448 133.529C124.887 131.834 126.961 129.178 127.703 126.15C127.9 125.345 128.713 124.853 129.517 125.05Z" fill="#DDBD85"/>
<path fill-rule="evenodd" clip-rule="evenodd" d="M124.563 143.591C125.163 144.162 125.188 145.111 124.618 145.712C123.971 146.393 122.998 147.154 122.149 147.753C121.714 148.059 121.287 148.341 120.915 148.566C120.577 148.771 120.189 148.989 119.869 149.105C119.09 149.388 118.23 148.985 117.948 148.206C117.666 147.427 118.068 146.567 118.847 146.285C118.843 146.286 118.843 146.286 118.847 146.284C118.859 146.279 118.901 146.26 118.982 146.218C119.081 146.165 119.208 146.093 119.36 146.001C119.662 145.817 120.032 145.575 120.421 145.301C121.219 144.738 122 144.111 122.442 143.646C123.012 143.045 123.962 143.021 124.563 143.591Z" fill="#DDBD85"/>
<path fill-rule="evenodd" clip-rule="evenodd" d="M60.8755 87.6823C60.413 86.9949 59.481 86.8126 58.7936 87.275C58.0141 87.7995 57.1017 88.6316 56.3702 89.3693C55.9956 89.7471 55.6469 90.1219 55.3628 90.4508C55.1047 90.7497 54.8246 91.0961 54.657 91.3923C54.249 92.1133 54.5028 93.0285 55.2238 93.4365C55.9448 93.8445 56.86 93.5907 57.268 92.8697C57.266 92.8731 57.266 92.8731 57.2685 92.8694C57.2754 92.8591 57.3011 92.8205 57.3566 92.7481C57.4249 92.6591 57.5175 92.5458 57.6334 92.4116C57.8648 92.1436 58.1654 91.8195 58.5004 91.4817C59.1881 90.7882 59.9359 90.1223 60.4682 89.7641C61.1556 89.3017 61.3379 88.3696 60.8755 87.6823Z" fill="#DDBD85"/>
<path fill-rule="evenodd" clip-rule="evenodd" d="M111.006 89.134C105.119 84.064 97.1162 81.1285 89.1683 81.6257C82.801 82.024 76.9097 84.5192 72.0997 87.5323C67.2878 90.5466 63.648 94.0233 61.8008 96.2528C61.2723 96.8908 60.3267 96.9795 59.6888 96.451C59.0509 95.9225 58.9621 94.9769 59.4907 94.3389C61.543 91.8616 65.4255 88.1732 70.5071 84.99C75.5907 81.8055 81.964 79.0705 88.981 78.6315C97.7635 78.0821 106.524 81.3153 112.964 86.8607C119.41 92.4122 123.625 100.372 123.084 109.297C122.236 123.279 113.92 130.684 109.585 132.695C108.834 133.044 107.942 132.717 107.594 131.966C107.245 131.214 107.572 130.322 108.323 129.974C111.733 128.392 119.313 121.916 120.089 109.115C120.563 101.3 116.887 94.1978 111.006 89.134Z" fill="#DDBD85"/>
</svg>
